<svg width="1920" xmlns="http://www.w3.org/2000/svg" height="1080" fill="none"><defs><clipPath id="a" class="frame-clip frame-clip-def"><rect rx="0" ry="0" width="1920" height="1080" transform="matrix(1.000000, 0.000000, 0.000000, 1.000000, 0.000000, 0.000000)"/></clipPath></defs><g clip-path="url(#a)"><g class="fills"><rect width="1920" height="1080" class="frame-background" transform="matrix(1.000000, 0.000000, 0.000000, 1.000000, 0.000000, 0.000000)" style="fill: rgb(255, 255, 255); fill-opacity: 1;" ry="0" rx="0"/></g><g class="frame-children"><rect rx="0" ry="0" y="264" transform="matrix(1.000000, 0.000000, 0.000000, 1.000000, 0.000000, 0.000000)" width="275" height="275" style="fill: rgb(255, 205, 130); fill-opacity: 1;" class="fills"/><rect rx="0" ry="0" y="815" transform="matrix(1.000000, 0.000000, 0.000000, 1.000000, 0.000000, 0.000000)" width="275" height="275" style="fill: rgb(255, 205, 130); fill-opacity: 1;" class="fills"/><rect rx="0" ry="0" x="827" y="-12" transform="matrix(1.000000, 0.000000, 0.000000, 1.000000, 0.000000, 0.000000)" width="275" height="275" style="fill: rgb(255, 205, 130); fill-opacity: 1;" class="fills"/><rect rx="0" ry="0" x="2205" y="815" transform="matrix(1.000000, 0.000000, 0.000000, 1.000000, 0.000000, 0.000000)" width="275" height="275" style="fill: rgb(255, 205, 130); fill-opacity: 1;" class="fills"/><rect rx="0" ry="0" x="1928" y="540" transform="matrix(1.000000, 0.000000, 0.000000, 1.000000, 0.000000, 0.000000)" width="275" height="275" style="fill: rgb(255, 205, 130); fill-opacity: 1;" class="fills"/><rect rx="0" ry="0" x="1653" y="815" transform="matrix(1.000000, 0.000000, 0.000000, 1.000000, 0.000000, 0.000000)" width="275" height="275" style="fill: rgb(255, 205, 130); fill-opacity: 1;" class="fills"/><rect rx="0" ry="0" x="1378" y="540" transform="matrix(1.000000, 0.000000, 0.000000, 1.000000, 0.000000, 0.000000)" width="275" height="275" style="fill: rgb(255, 205, 130); fill-opacity: 1;" class="fills"/><rect rx="0" ry="0" x="1102" y="815" transform="matrix(1.000000, 0.000000, 0.000000, 1.000000, 0.000000, 0.000000)" width="275" height="275" style="fill: rgb(255, 205, 130); fill-opacity: 1;" class="fills"/><rect rx="0" ry="0" x="827" y="540" transform="matrix(1.000000, 0.000000, 0.000000, 1.000000, 0.000000, 0.000000)" width="275" height="275" style="fill: rgb(255, 205, 130); fill-opacity: 1;" class="fills"/><rect rx="0" ry="0" x="551" y="815" transform="matrix(1.000000, 0.000000, 0.000000, 1.000000, 0.000000, 0.000000)" width="275" height="275" style="fill: rgb(255, 205, 130); fill-opacity: 1;" class="fills"/><rect rx="0" ry="0" x="275" y="540" transform="matrix(1.000000, 0.000000, 0.000000, 1.000000, 0.000000, 0.000000)" width="275" height="275" style="fill: rgb(255, 205, 130); fill-opacity: 1;" class="fills"/><rect rx="0" ry="0" x="551" y="264" transform="matrix(1.000000, 0.000000, 0.000000, 1.000000, 0.000000, 0.000000)" width="275" height="275" style="fill: rgb(255, 205, 130); fill-opacity: 1;" class="fills"/><rect rx="0" ry="0" x="1102" y="264" transform="matrix(1.000000, 0.000000, 0.000000, 1.000000, 0.000000, 0.000000)" width="275" height="275" style="fill: rgb(255, 205, 130); fill-opacity: 1;" class="fills"/><rect rx="0" ry="0" x="1653" y="264" transform="matrix(1.000000, 0.000000, 0.000000, 1.000000, 0.000000, 0.000000)" width="275" height="275" style="fill: rgb(255, 205, 130); fill-opacity: 1;" class="fills"/><rect rx="0" ry="0" x="2205" y="264" transform="matrix(1.000000, 0.000000, 0.000000, 1.000000, 0.000000, 0.000000)" width="275" height="275" style="fill: rgb(255, 205, 130); fill-opacity: 1;" class="fills"/><rect rx="0" ry="0" x="1928" y="-12" transform="matrix(1.000000, 0.000000, 0.000000, 1.000000, 0.000000, 0.000000)" width="275" height="275" style="fill: rgb(255, 205, 130); fill-opacity: 1;" class="fills"/><rect rx="0" ry="0" x="1378" y="-12" transform="matrix(1.000000, 0.000000, 0.000000, 1.000000, 0.000000, 0.000000)" width="275" height="275" style="fill: rgb(255, 205, 130); fill-opacity: 1;" class="fills"/><rect rx="0" ry="0" x="275" y="-12" transform="matrix(1.000000, 0.000000, 0.000000, 1.000000, 0.000000, 0.000000)" width="275" height="275" style="fill: rgb(255, 205, 130); fill-opacity: 1;" class="fills"/><path d="M268.377,209.799L202.057,236.416L255.113,329.575L334.698,276.341L268.377,209.799Z" style="fill: rgb(144, 85, 41); fill-opacity: 1;" class="fills"/><path d="M162.264,249.724L82.679,289.649L149.000,422.734L241.849,342.883L162.264,249.724Z" style="fill: rgb(144, 85, 41); fill-opacity: 1;" class="fills"/><path d="M188.792,1207.930L162.264,1181.313L42.887,1181.313L29.623,1221.238L82.679,1287.780L149.000,1261.163L188.792,1207.930Z" style="fill: rgb(131, 78, 39); fill-opacity: 1;" class="fills"/><path d="M-235.660,1207.930L-209.132,1181.313L-76.491,1181.313L-76.491,1221.238L-63.226,1247.855L-89.755,1274.472L-195.868,1261.163L-235.660,1207.930Z" style="fill: rgb(131, 78, 39); fill-opacity: 1;" class="fills"/><path d="M454.075,835.294L520.396,821.986L785.679,795.369L825.472,609.051L798.943,409.425L546.925,369.500L308.170,316.266L149.000,462.659L82.679,555.818L69.415,582.434L-222.396,582.434L-381.566,662.285L-461.151,808.677L-474.415,941.762L-461.151,1061.537L-421.358,1128.079L-421.358,1194.621L-394.830,1274.472L-315.245,1261.163L-222.396,1154.696L175.528,1154.696L321.434,1274.472L374.491,1261.163L334.698,1101.463L454.075,835.294Z" style="fill: rgb(255, 161, 51); fill-opacity: 1;" class="fills"/><path d="M825.472,422.734L613.245,369.500L679.566,808.677L785.679,808.677L825.472,422.734Z" style="fill: rgb(165, 82, 21); fill-opacity: 1;" class="fills"/><rect rx="6" ry="6" x="82.679" y="955.07" transform="matrix(-1.000000, 0.000000, 0.000000, 1.000000, 191.886792, -0.000000)" width="26.528" height="93.159" style="fill: rgb(193, 101, 1); fill-opacity: 1;" class="fills"/><rect rx="6" ry="6" x="-296.47" y="834.661" transform="matrix(-0.440487, -0.897759, -0.896593, 0.442856, 382.099425, 236.690192)" width="26.6" height="92.91" style="fill: rgb(193, 101, 1); fill-opacity: 1;" class="fills"/><rect rx="6" ry="6" x="24.222" y="956.239" transform="matrix(-0.855410, -0.517951, -0.515427, 0.856933, 583.007111, 161.935249)" width="26.552" height="79.78" style="fill: rgb(193, 101, 1); fill-opacity: 1;" class="fills"/><rect rx="6" ry="6" x="-336.998" y="789.512" transform="matrix(-0.313373, -0.949630, -0.949005, 0.315260, 368.192334, 265.020252)" width="26.608" height="92.88" style="fill: rgb(193, 101, 1); fill-opacity: 1;" class="fills"/><rect rx="6" ry="6" x="760.1" y="477.044" transform="matrix(0.381144, -0.924516, -0.923616, -0.383319, 982.618487, 1469.833215)" width="53.208" height="119.436" style="fill: rgb(87, 44, 15); fill-opacity: 1;" class="fills"/><defs><filter id="b" x="-.17" y="-.169" width="1.358" height="1.357" filterUnits="objectBoundingBox" color-interpolation-filters="sRGB"><feFlood flood-opacity="0" result="BackgroundImageFix"/><feColorMatrix in="SourceAlpha" values="0 0 0 0 0 0 0 0 0 0 0 0 0 0 0 0 0 0 127 0"/><feOffset dx="1" dy="1"/><feGaussianBlur stdDeviation="2"/><feColorMatrix values="0 0 0 0 0 0 0 0 0 0 0 0 0 0 0 0 0 0 0.2 0"/><feBlend in2="BackgroundImageFix" result="filter_6996df7c-6d07-80b3-8005-82b438d3f6eb"/><feBlend in="SourceGraphic" in2="filter_6996df7c-6d07-80b3-8005-82b438d3f6eb" result="shape"/></filter></defs><ellipse cx="281.642" cy="662.285" rx="79.585" ry="79.85" transform="matrix(-1.000000, 0.000000, 0.000000, 1.000000, 563.283019, -0.000000)" filter="url(#b)" style="fill: rgb(254, 115, 97); fill-opacity: 1;" class="fills"/><defs><filter id="c" x="-.254" y="-.507" width="1.537" height="2.071" filterUnits="objectBoundingBox" color-interpolation-filters="sRGB"><feFlood flood-opacity="0" result="BackgroundImageFix"/><feColorMatrix in="SourceAlpha" values="0 0 0 0 0 0 0 0 0 0 0 0 0 0 0 0 0 0 127 0"/><feOffset dx="1" dy="1"/><feGaussianBlur stdDeviation="2"/><feColorMatrix values="0 0 0 0 0 0 0 0 0 0 0 0 0 0 0 0 0 0 0.2 0"/><feBlend in2="BackgroundImageFix" result="filter_6996df7c-6d07-80b3-8005-82b3f6381b27"/><feBlend in="SourceGraphic" in2="filter_6996df7c-6d07-80b3-8005-82b3f6381b27" result="shape"/></filter></defs><rect width="106.113" height="53.234" x="308.17" transform="matrix(-1.000000, 0.000000, 0.000000, 1.000000, 722.452830, -0.000000)" style="fill: rgb(0, 0, 0); fill-opacity: 1;" ry="26.617" rx="26.617" filter="url(#c)" y="569.126" class="fills"/><path d="M175.528,1168.005L30.332,1168.005L-64.903,1168.005L-222.396,1168.005C-222.396,1168.005,-230.593,1182.808,-244.682,1202.007C-270.667,1237.418,-316.696,1287.780,-368.302,1287.780C-435.936,1287.780,-421.358,1154.696,-421.358,1154.696C-421.358,1154.696,-478.681,1085.680,-486.742,969.035C-487.351,960.213,-487.679,951.119,-487.679,941.762C-487.679,938.019,-487.640,934.305,-487.563,930.620C-482.712,698.496,-326.437,582.434,-195.868,582.434C-191.516,582.434,-187.124,582.474,-182.703,582.550C-106.286,583.850,-21.258,595.743,16.358,595.743C95.943,595.743,149.000,436.042,149.000,436.042C149.000,436.042,62.968,314.941,95.943,276.341C128.897,237.767,161.850,242.546,189.153,261.389C227.790,288.054,255.113,342.883,255.113,342.883L334.698,302.958L574.854,354.070L621.167,363.927L772.415,396.117C772.415,396.117,825.472,409.425,825.472,475.967C825.472,475.967,838.736,609.051,798.943,768.752C789.292,807.485,759.151,821.986,706.094,821.986C546.925,821.986,461.042,817.819,454.075,835.294C439.568,871.684,425.060,907.080,411.637,939.575C375.970,1025.920,347.962,1091.793,347.962,1101.463C347.962,1114.771,427.547,1274.472,334.698,1287.780C306.774,1291.783,248.138,1240.232,210.360,1203.491C189.879,1183.571,175.528,1168.005,175.528,1168.005ZM334.698,302.958C334.698,302.958,321.898,232.135,255.113,209.799C215.321,196.491,189.153,261.389,189.153,261.389M255.113,342.883L149.000,436.042M210.360,1203.491C210.360,1203.491,155.407,1287.780,82.679,1287.780C16.358,1287.780,30.332,1168.005,30.332,1168.005M-244.682,1202.007C-244.682,1202.007,-185.269,1287.780,-103.019,1287.780C-36.698,1287.780,-64.903,1168.005,-64.903,1168.005M-487.563,930.620L-554.000,941.762M-486.742,969.035L-540.736,994.995M-182.703,582.550L-169.340,502.584M-209.132,582.434L-222.396,529.201M574.854,354.070L586.717,289.649M621.167,363.927L653.038,302.958M411.637,939.575L493.868,928.453M411.637,939.575L454.075,981.687" class="fills"/><g class="strokes"><path d="M175.528,1168.005L30.332,1168.005L-64.903,1168.005L-222.396,1168.005C-222.396,1168.005,-230.593,1182.808,-244.682,1202.007C-270.667,1237.418,-316.696,1287.780,-368.302,1287.780C-435.936,1287.780,-421.358,1154.696,-421.358,1154.696C-421.358,1154.696,-478.681,1085.680,-486.742,969.035C-487.351,960.213,-487.679,951.119,-487.679,941.762C-487.679,938.019,-487.640,934.305,-487.563,930.620C-482.712,698.496,-326.437,582.434,-195.868,582.434C-191.516,582.434,-187.124,582.474,-182.703,582.550C-106.286,583.850,-21.258,595.743,16.358,595.743C95.943,595.743,149.000,436.042,149.000,436.042C149.000,436.042,62.968,314.941,95.943,276.341C128.897,237.767,161.850,242.546,189.153,261.389C227.790,288.054,255.113,342.883,255.113,342.883L334.698,302.958L574.854,354.070L621.167,363.927L772.415,396.117C772.415,396.117,825.472,409.425,825.472,475.967C825.472,475.967,838.736,609.051,798.943,768.752C789.292,807.485,759.151,821.986,706.094,821.986C546.925,821.986,461.042,817.819,454.075,835.294C439.568,871.684,425.060,907.080,411.637,939.575C375.970,1025.920,347.962,1091.793,347.962,1101.463C347.962,1114.771,427.547,1274.472,334.698,1287.780C306.774,1291.783,248.138,1240.232,210.360,1203.491C189.879,1183.571,175.528,1168.005,175.528,1168.005ZM334.698,302.958C334.698,302.958,321.898,232.135,255.113,209.799C215.321,196.491,189.153,261.389,189.153,261.389M255.113,342.883L149.000,436.042M210.360,1203.491C210.360,1203.491,155.407,1287.780,82.679,1287.780C16.358,1287.780,30.332,1168.005,30.332,1168.005M-244.682,1202.007C-244.682,1202.007,-185.269,1287.780,-103.019,1287.780C-36.698,1287.780,-64.903,1168.005,-64.903,1168.005M-487.563,930.620L-554.000,941.762M-486.742,969.035L-540.736,994.995M-182.703,582.550L-169.340,502.584M-209.132,582.434L-222.396,529.201M574.854,354.070L586.717,289.649M621.167,363.927L653.038,302.958M411.637,939.575L493.868,928.453M411.637,939.575L454.075,981.687" style="fill: none; stroke-width: 45.5; stroke: rgb(0, 0, 0); stroke-opacity: 1; stroke-linecap: round;" class="stroke-shape"/></g><path d="M539.252,226.159C539.252,226.159,516.706,196.077,512.544,180.209C505.599,153.735,514.945,141.605,516.146,140.398C517.346,139.192,532.210,131.571,556.965,142.811C575.000,151.000,592.077,185.142,592.077,185.142C592.077,185.142,585.000,144.000,589.380,127.128C595.092,105.126,614.592,103.000,618.194,103.000C621.796,103.000,637.403,105.413,647.008,129.541C653.930,146.929,661.710,183.935,661.710,183.935L592.077,185.142L539.252,226.159Z" style="fill: rgb(4, 174, 20); fill-opacity: 1;" class="fills"/><g class="strokes"><g class="outer-stroke-shape"><defs><mask id="e" x="461.716" y="54.716" width="248.278" height="219.727" maskUnits="userSpaceOnUse"><use href="#d" style="fill: none; stroke: white; stroke-width: 40;"/><use href="#d" style="fill: black; stroke: none;"/></mask><path d="M539.252,226.159C539.252,226.159,516.706,196.077,512.544,180.209C505.599,153.735,514.945,141.605,516.146,140.398C517.346,139.192,532.210,131.571,556.965,142.811C575.000,151.000,592.077,185.142,592.077,185.142C592.077,185.142,585.000,144.000,589.380,127.128C595.092,105.126,614.592,103.000,618.194,103.000C621.796,103.000,637.403,105.413,647.008,129.541C653.930,146.929,661.710,183.935,661.710,183.935L592.077,185.142L539.252,226.159Z" id="d"/></defs><use href="#d" mask="url(#e)" style="fill: none; stroke-width: 40; stroke: rgb(0, 0, 0); stroke-opacity: 1;"/><use href="#d" style="fill: none; stroke-width: 20; stroke: none; stroke-opacity: 1;"/></g></g><ellipse cx="620.172" cy="266.644" rx="85.608" ry="85.287" transform="matrix(0.332796, -0.942999, 0.941980, 0.335668, 162.607967, 761.961115)" style="fill: rgb(255, 112, 0); fill-opacity: 1;" class="fills"/><g class="strokes"><g class="outer-stroke-shape"><defs><mask id="g" x="483.059" y="129.003" width="274.225" height="275.281" maskUnits="userSpaceOnUse"><use href="#f" style="fill: none; stroke: white; stroke-width: 40;"/><use href="#f" style="fill: black; stroke: none;"/></mask><ellipse cx="620.172" cy="266.644" rx="85.608" ry="85.287" transform="matrix(0.332796, -0.942999, 0.941980, 0.335668, 162.607967, 761.961115)" id="f"/></defs><use href="#f" mask="url(#g)" style="fill: none; stroke-width: 40; stroke: rgb(0, 0, 0); stroke-opacity: 1;"/><use href="#f" style="fill: none; stroke-width: 20; stroke: none; stroke-opacity: 1;"/></g></g><rect rx="4" ry="4" x="627.421" y="213.671" transform="matrix(0.991331, 0.131390, -0.130146, 0.991495, 36.617300, -81.508061)" width="16.809" height="50.664" style="fill: rgb(0, 0, 0); fill-opacity: 0.13;" class="fills"/><rect rx="4" ry="4" x="653.361" y="229.11" transform="matrix(0.962490, 0.271318, -0.268895, 0.963169, 91.987614, -170.682179)" width="19.216" height="41.003" style="fill: rgb(0, 0, 0); fill-opacity: 0.13;" class="fills"/><g filter="url(#h)" xml:space="preserve" style="fill: rgb(0, 0, 0);"><defs><filter id="h" x="-.017" y="-.087" width="1.033" height="1.261" filterUnits="objectBoundingBox" color-interpolation-filters="sRGB"><feFlood flood-opacity="0" result="BackgroundImageFix"/><feColorMatrix in="SourceAlpha" values="0 0 0 0 0 0 0 0 0 0 0 0 0 0 0 0 0 0 127 0"/><feOffset dx="-1" dy="10"/><feGaussianBlur/><feColorMatrix values="0 0 0 0 0.9921568627450981 0 0 0 0 0.6352941176470588 0 0 0 0 0.20784313725490197 0 0 0 0.93 0"/><feBlend in2="BackgroundImageFix" result="filter_c3404281-8dab-80c5-8005-85812d661ec3"/><feBlend in="SourceGraphic" in2="filter_c3404281-8dab-80c5-8005-85812d661ec3" result="shape"/></filter></defs><g style="fill: rgb(0, 0, 0);"><path d="M1063.301,496.018C1064.952,494.963,1066.671,493.973,1068.457,493.048C1078.066,488.076,1089.068,485.397,1101.550,485.397L1119.389,485.397C1131.870,485.397,1142.871,488.076,1152.480,493.048C1155.379,494.549,1158.099,496.221,1160.641,498.064C1164.908,491.402,1172.357,486.988,1180.834,486.988L1205.807,486.988C1208.352,486.988,1210.804,487.386,1213.106,488.123C1218.491,486.258,1223.801,485.397,1228.998,485.397L1241.485,485.397C1253.687,485.397,1264.419,488.097,1273.773,493.099C1276.242,494.420,1278.574,495.869,1280.768,497.447C1285.092,491.130,1292.340,486.988,1300.552,486.988L1325.526,486.988C1328.071,486.988,1330.523,487.386,1332.824,488.123C1338.209,486.258,1343.519,485.397,1348.716,485.397L1361.204,485.397C1373.406,485.397,1384.136,488.097,1393.492,493.099C1394.911,493.858,1396.285,494.660,1397.614,495.504L1396.935,493.079L1396.280,485.402L1396.935,477.726L1399.122,469.914L1403.003,462.512L1408.337,456.165L1414.860,451.101L1422.228,447.543L1429.849,445.583L1437.316,445.000L1444.782,445.583L1452.404,447.543L1459.771,451.101L1461.839,452.706C1466.021,449.141,1471.438,446.991,1477.355,446.991L1504.311,446.991C1517.560,446.991,1528.301,457.773,1528.301,471.075L1528.301,485.397L1539.196,485.397C1551.242,485.397,1561.840,488.149,1571.083,493.258C1576.896,496.471,1581.952,500.465,1586.243,505.245C1587.979,503.349,1589.878,501.541,1591.940,499.819C1602.955,490.622,1617.216,485.397,1635.129,485.397L1652.175,485.397C1668.653,485.397,1682.075,489.866,1692.751,497.884C1697.036,491.322,1704.427,486.988,1712.827,486.988L1737.801,486.988C1741.185,486.988,1744.405,487.692,1747.324,488.960C1752.523,487.375,1757.873,486.590,1763.371,486.590L1776.849,486.590C1782.687,486.590,1788.038,488.684,1792.197,492.164C1801.090,487.781,1811.525,485.397,1823.626,485.397L1840.673,485.397C1858.853,485.397,1873.315,490.839,1884.471,500.483C1896.948,511.270,1903.511,525.449,1903.511,543.310L1903.511,610.371C1903.511,623.673,1892.770,634.456,1879.522,634.456L1854.547,634.456C1851.662,634.456,1848.896,633.945,1846.334,633.007C1840.555,635.081,1834.824,636.048,1829.176,636.048L1816.887,636.048C1800.255,636.048,1787.021,631.244,1776.785,622.895C1771.175,618.318,1766.827,613.080,1763.773,607.166L1763.773,610.371C1763.773,623.673,1753.033,634.456,1739.784,634.456L1712.827,634.456C1708.902,634.456,1705.196,633.510,1701.926,631.831C1698.655,633.510,1694.949,634.456,1691.024,634.456L1666.050,634.456C1663.165,634.456,1660.399,633.945,1657.837,633.007C1652.058,635.081,1646.326,636.048,1640.679,636.048L1628.390,636.048C1611.757,636.048,1598.523,631.244,1588.288,622.895C1586.563,621.488,1584.958,620.019,1583.473,618.487C1579.807,622.097,1575.662,625.215,1571.042,627.843C1561.638,633.194,1550.920,636.048,1538.800,636.048L1525.123,636.048L1511.670,633.924C1511.039,633.723,1510.406,633.507,1509.772,633.275C1507.429,634.042,1504.927,634.456,1502.329,634.456L1477.355,634.456C1472.443,634.456,1467.877,632.975,1464.074,630.432C1460.272,632.975,1455.705,634.456,1450.795,634.456L1423.838,634.456C1414.725,634.456,1406.800,629.355,1402.738,621.842C1400.159,623.988,1397.384,625.921,1394.413,627.644C1384.991,633.110,1374.153,636.048,1361.799,636.048L1351.498,636.048L1351.498,650.171C1351.498,663.472,1340.757,674.255,1327.509,674.255L1300.552,674.255C1287.303,674.255,1276.562,663.472,1276.562,650.171L1276.562,626.517C1275.948,626.902,1275.326,627.278,1274.696,627.644C1265.272,633.110,1254.435,636.048,1242.080,636.048L1231.780,636.048L1231.780,650.171C1231.780,663.472,1221.039,674.255,1207.790,674.255L1180.834,674.255C1167.584,674.255,1156.843,663.472,1156.843,650.171L1156.843,626.055C1155.383,626.949,1153.870,627.792,1152.305,628.585C1142.775,633.419,1131.767,636.048,1119.190,636.048L1101.351,636.048C1088.936,636.048,1077.992,633.433,1068.435,628.585C1065.284,626.988,1062.348,625.188,1059.626,623.188C1055.380,629.958,1047.869,634.456,1039.312,634.456L1011.959,634.456C998.710,634.456,987.970,623.673,987.970,610.371L987.970,576.549C987.970,576.549,971.332,576.549,971.332,576.549L971.332,610.371C971.332,623.673,960.592,634.456,947.343,634.456L919.989,634.456C906.741,634.456,896.000,623.673,896.000,610.371L896.000,471.075C896.000,457.773,906.741,446.991,919.989,446.991L947.343,446.991C960.592,446.991,971.332,457.773,971.332,471.075L971.332,504.499C971.332,504.499,987.970,504.499,987.970,504.499L987.970,471.075C987.970,457.773,998.710,446.991,1011.959,446.991L1039.312,446.991C1052.561,446.991,1063.301,457.773,1063.301,471.075L1063.301,496.018ZL1063.301,496.018ZM1425.249,511.132L1425.249,610.330L1424.545,610.371L1450.795,610.371L1450.795,511.073L1424.488,511.073L1425.249,511.132ZL1425.249,511.132ZL1425.249,511.132ZM1300.552,511.073L1300.552,650.171L1327.509,650.171L1327.509,602.412C1330.283,605.330,1333.620,607.652,1337.518,609.376C1341.416,611.101,1345.215,611.963,1348.915,611.963L1361.799,611.963C1369.595,611.963,1376.466,610.239,1382.412,606.790C1388.359,603.340,1392.983,598.465,1396.287,592.163C1399.590,585.862,1399.029,578.681,1399.029,570.456L1399.029,548.088C1399.029,540.525,1397.476,534.474,1394.173,528.637C1390.870,522.800,1388.292,517.606,1382.214,514.356C1376.136,511.106,1369.132,509.481,1361.204,509.481L1348.716,509.481C1344.620,509.481,1340.425,510.608,1336.131,512.864C1331.836,515.119,1327.029,519.087,1324.254,522.802L1324.254,511.132L1300.552,511.073ZL1300.552,511.073ZM1358.231,588.681L1345.941,588.681C1341.053,588.681,1336.364,588.626,1332.994,585.044C1329.625,581.462,1326.857,575.320,1326.197,569.484L1325.225,550.033C1326.811,545.124,1330.530,539.535,1333.965,536.418C1337.400,533.300,1342.110,532.764,1345.941,532.764L1358.033,532.764C1362.921,532.764,1366.853,534.355,1369.826,537.539C1372.799,540.723,1374.286,544.902,1374.286,550.076L1374.286,568.383C1374.286,574.486,1372.832,579.395,1369.925,583.109C1367.018,586.824,1363.120,588.681,1358.231,588.681ZL1358.231,588.681ZM1712.827,511.073L1712.827,610.371L1738.913,610.330L1737.942,556.841C1737.942,550.208,1741.350,543.581,1745.711,539.335C1750.072,535.090,1756.367,534.156,1763.371,534.156L1773.873,532.527L1774.844,511.132L1763.371,510.675C1758.217,510.675,1753.295,511.902,1748.604,514.356C1743.913,516.811,1739.482,521.873,1736.971,525.720L1736.000,512.104L1712.827,511.073ZL1712.827,511.073ZM1816.887,611.963L1829.176,611.963C1833.669,611.963,1838.228,610.736,1842.853,608.282C1847.477,605.827,1851.376,602.545,1854.547,598.431L1854.547,610.371L1879.522,610.371L1879.522,543.310C1879.522,533.095,1875.953,524.903,1868.818,518.734C1861.683,512.565,1852.301,509.481,1840.673,509.481L1823.626,509.481C1812.130,509.481,1802.847,512.433,1795.778,518.336C1788.708,524.240,1785.174,532.034,1785.174,541.718L1811.337,541.718C1811.337,538.800,1812.461,536.478,1814.707,534.753C1816.953,533.029,1819.926,532.166,1823.626,532.166L1840.673,532.166C1844.240,532.166,1847.114,533.195,1849.295,535.251C1851.475,537.307,1852.565,539.994,1852.565,543.310L1852.565,553.658C1849.261,552.066,1845.627,550.805,1841.663,549.877C1837.699,548.948,1833.999,548.484,1830.563,548.484L1818.473,548.484C1807.637,548.484,1798.916,551.037,1792.309,556.146C1785.702,561.253,1782.399,567.986,1782.399,576.343L1782.399,583.706C1782.399,592.197,1785.570,599.028,1791.913,604.203C1798.255,609.376,1806.580,611.963,1816.887,611.963ZL1816.887,611.963ZM1831.158,591.268L1820.455,591.268C1816.887,591.268,1814.013,590.472,1811.833,588.880C1809.652,587.288,1808.562,585.232,1808.562,582.712L1808.562,577.537C1808.562,574.884,1809.553,572.761,1811.536,571.170C1813.518,569.578,1816.094,568.781,1819.265,568.781L1831.753,568.781C1835.982,568.781,1839.979,569.246,1843.745,570.175C1847.511,571.103,1850.451,572.364,1852.565,573.956L1852.565,577.338C1850.847,581.584,1848.072,584.967,1844.240,587.487C1840.408,590.008,1836.047,591.268,1831.158,591.268ZL1831.158,591.268ZM1829.457,572.810L1829.048,574.906L1832.172,581.178C1832.254,580.807,1832.322,580.429,1832.377,580.044C1832.015,577.375,1831.075,574.946,1829.457,572.810ZL1829.457,572.810ZM1628.390,611.963L1640.679,611.963C1645.172,611.963,1649.730,610.736,1654.355,608.282C1658.980,605.827,1662.878,602.545,1666.050,598.431L1666.050,610.371L1691.024,610.371L1691.024,543.310C1691.024,533.095,1687.457,524.903,1680.321,518.734C1673.185,512.565,1663.803,509.481,1652.175,509.481L1635.129,509.481C1623.633,509.481,1614.350,512.433,1607.281,518.336C1600.211,524.240,1596.676,532.034,1596.676,541.718L1622.840,541.718C1622.840,538.800,1623.963,536.478,1626.209,534.753C1628.456,533.029,1631.429,532.166,1635.129,532.166L1652.175,532.166C1655.743,532.166,1658.617,533.195,1660.797,535.251C1662.977,537.307,1664.068,539.994,1664.068,543.310L1664.068,553.658C1660.764,552.066,1657.130,550.805,1653.166,549.877C1649.202,548.948,1645.502,548.484,1642.066,548.484L1629.975,548.484C1619.140,548.484,1610.419,551.037,1603.812,556.146C1597.205,561.253,1593.901,567.986,1593.901,576.343L1593.901,583.706C1593.901,592.197,1597.073,599.028,1603.416,604.203C1609.758,609.376,1618.084,611.963,1628.390,611.963ZL1628.390,611.963ZM1642.661,591.268L1631.958,591.268C1628.390,591.268,1625.516,590.472,1623.336,588.880C1621.156,587.288,1620.065,585.232,1620.065,582.712L1620.065,577.537C1620.065,574.884,1621.056,572.761,1623.038,571.170C1625.021,569.578,1627.597,568.781,1630.769,568.781L1643.256,568.781C1647.484,568.781,1651.482,569.246,1655.248,570.175C1659.014,571.103,1661.953,572.364,1664.068,573.956L1664.068,577.338C1662.350,581.584,1659.575,584.967,1655.743,587.487C1651.911,590.008,1647.551,591.268,1642.661,591.268ZL1642.661,591.268ZM1640.959,572.810L1640.552,574.906L1643.675,581.178C1643.756,580.807,1643.825,580.429,1643.880,580.044C1643.517,577.375,1642.577,574.946,1640.959,572.810ZL1640.959,572.810ZM1525.123,611.963L1538.800,611.963C1546.463,611.963,1552.343,608.850,1558.289,605.467C1564.235,602.084,1566.638,596.982,1569.942,590.879C1573.246,584.777,1574.798,579.388,1574.798,571.429L1574.798,548.088C1574.798,540.261,1574.150,537.525,1570.913,531.555C1567.675,525.585,1566.112,521.190,1560.231,517.940C1554.351,514.690,1546.860,509.481,1539.196,509.481L1525.321,509.481C1521.753,509.481,1518.021,510.344,1514.122,512.068C1510.224,513.793,1505.579,517.099,1502.936,519.885L1501.965,471.258L1477.355,471.075L1477.355,610.371L1500.023,610.330L1500.994,595.742C1503.637,599.987,1508.408,605.330,1512.636,607.984C1516.865,610.637,1521.027,611.963,1525.123,611.963ZL1525.123,611.963ZM1535.628,588.283L1522.744,588.283C1518.120,588.283,1512.132,587.322,1508.763,584.071C1505.393,580.821,1503.861,575.763,1502.936,570.456L1501.965,553.923C1502.493,547.820,1506.888,542.448,1510.455,538.733C1514.024,535.019,1518.450,533.161,1523.736,533.161L1536.025,533.161C1540.517,533.161,1544.151,534.787,1546.926,538.037C1549.701,541.287,1551.089,545.566,1551.089,550.872L1551.089,569.578C1551.089,575.150,1549.668,579.660,1546.827,583.109C1543.986,586.559,1540.253,588.283,1535.628,588.283ZL1535.628,588.283ZM1437.316,501.720C1442.469,501.720,1446.599,500.228,1449.704,497.242C1452.810,494.258,1454.362,490.311,1454.362,485.402C1454.362,480.494,1452.810,476.547,1449.704,473.562C1446.599,470.578,1442.469,469.085,1437.316,469.085C1432.162,469.085,1428.034,470.578,1424.928,473.562C1421.823,476.547,1420.270,480.494,1420.270,485.402C1420.270,490.311,1421.823,494.258,1424.928,497.242C1428.034,500.228,1432.162,501.720,1437.316,501.720ZL1437.316,501.720ZM1101.351,611.963L1119.190,611.963C1127.647,611.963,1134.308,608.717,1140.717,605.467C1147.125,602.216,1151.715,594.904,1155.283,588.934C1158.851,582.964,1159.168,581.201,1159.168,573.374L1159.168,550.033C1159.168,542.206,1157.880,535.646,1154.312,529.610C1150.744,523.574,1146.154,520.283,1139.746,516.967C1133.336,513.650,1127.713,509.481,1119.389,509.481L1101.550,509.481C1093.225,509.481,1085.858,511.139,1079.449,514.456C1073.040,517.772,1068.052,522.449,1064.484,528.485C1060.917,534.521,1059.132,541.452,1059.132,549.280L1059.132,572.562C1059.132,580.389,1060.883,587.288,1064.386,593.258C1067.887,599.228,1072.843,603.838,1079.251,607.088C1085.659,610.338,1093.026,611.963,1101.351,611.963ZL1101.351,611.963ZM1118.794,588.681L1101.748,588.681C1097.123,588.681,1092.156,588.427,1089.249,585.044C1086.342,581.661,1084.393,574.923,1084.393,569.484L1084.393,551.005C1084.393,545.567,1084.400,540.773,1087.306,537.390C1090.214,534.008,1097.189,532.764,1101.946,532.764L1118.992,532.764C1123.749,532.764,1127.581,534.455,1130.488,537.837C1133.395,541.220,1134.849,545.632,1134.849,551.071L1134.849,570.373C1134.849,575.813,1133.395,580.224,1130.488,583.607C1127.581,586.990,1123.683,588.681,1118.794,588.681ZL1118.794,588.681ZM1110.078,564.596L1110.859,564.596L1110.859,556.848L1110.078,556.848L1110.078,564.596ZL1110.078,564.596ZM1180.834,511.073L1180.834,650.171L1205.780,650.203L1205.780,600.604C1208.555,603.523,1213.902,607.652,1217.799,609.376C1221.697,611.101,1225.496,611.963,1229.196,611.963L1242.080,611.963C1249.876,611.963,1256.158,608.916,1262.104,605.467C1268.050,602.018,1271.424,598.153,1274.728,591.852C1278.032,585.550,1279.584,577.709,1279.584,569.484L1279.584,550.033C1279.584,542.470,1279.872,533.825,1276.568,527.988C1273.265,522.150,1268.574,517.606,1262.495,514.356C1256.417,511.106,1249.413,509.481,1241.485,509.481L1228.998,509.481C1224.902,509.481,1220.706,510.608,1216.412,512.864C1212.117,515.119,1208.583,518.104,1205.807,521.819L1205.807,511.073L1180.834,511.073ZL1180.834,511.073ZM1238.513,588.681L1226.223,588.681C1221.334,588.681,1214.977,589.599,1211.607,586.016C1208.238,582.435,1206.441,574.348,1205.780,568.511L1204.809,550.033C1206.395,545.124,1211.085,539.535,1214.520,536.418C1217.956,533.300,1222.391,532.764,1226.223,532.764L1238.314,532.764C1243.204,532.764,1247.135,534.355,1250.107,537.539C1253.081,540.723,1254.567,544.902,1254.567,550.076L1254.567,568.383C1254.567,574.486,1253.113,579.395,1250.207,583.109C1247.300,586.824,1243.401,588.681,1238.513,588.681ZL1238.513,588.681ZM919.989,471.075L919.989,610.371L947.343,610.371L947.343,552.464L1011.959,552.464L1011.959,610.371L1039.312,610.371L1039.312,471.075L1011.959,471.075L1011.959,528.585L947.343,528.585L947.343,471.075L919.989,471.075ZL919.989,471.075Z" style="fill-rule: evenodd; clip-rule: evenodd; stroke-linejoin: round; stroke-miterlimit: 1.5; fill: rgb(0, 0, 0); fill-opacity: 1;" class="fills"/><text transform="matrix(0.813559, 0.000000, 0.000000, 0.816785, 896.000000, 445.000000) matrix(1,0,0,1,-433.486,-893.27)" x="447.868" y="1095.74" style="fill-rule: evenodd; font-family: BaiJamjuree-Bold, &quot;Bai Jamjuree&quot;; stroke-linejoin: round; font-weight: 700; stroke-miterlimit: 1.5; font-size: 243.632px; clip-rule: evenodd; fill: rgb(255, 255, 255);">Hoppibara</text></g><path d="M1110.235,557.105C1110.401,557.437,1110.368,557.449,1110.497,557.710C1110.663,558.041,1111.064,557.755,1111.192,558.013C1111.195,558.005,1111.540,556.913,1110.891,556.749C1110.741,556.712,1110.461,556.726,1110.537,558.644C1110.582,558.520,1111.140,556.980,1111.140,557.105C1111.140,557.158,1111.282,557.194,1110.314,560.433C1110.296,560.491,1110.111,561.114,1110.052,561.144C1109.958,561.191,1109.580,558.895,1109.580,557.341C1109.632,557.546,1109.604,557.550,1109.947,559.960C1109.957,560.031,1109.969,560.028,1110.130,560.841C1110.362,560.203,1110.960,558.756,1111.023,557.934C1110.957,557.931,1110.321,557.898,1110.209,557.841C1110.177,557.826,1110.157,557.889,1110.156,557.894C1110.155,557.921,1110.340,560.790,1110.366,560.973C1110.462,561.640,1110.619,561.624,1110.537,562.289C1110.521,562.416,1110.532,562.469,1110.524,562.617C1110.833,561.064,1111.601,559.130,1111.126,559.209C1111.002,559.231,1110.767,562.008,1110.681,562.354C1110.632,562.552,1110.498,564.179,1110.458,564.380C1110.438,564.483,1110.445,564.532,1110.445,565.143C1110.411,565.040,1110.437,564.015,1110.314,563.644C1110.209,563.328,1110.209,561.320,1110.209,561.117C1110.248,561.391,1110.603,563.316,1110.694,563.683C1110.845,564.289,1110.919,565.082,1110.982,565.275L1110.982,565.064" style="fill-rule: evenodd; clip-rule: evenodd; stroke-linejoin: round; stroke-miterlimit: 1.5; fill: none;" class="fills"/><g class="strokes" style="fill-rule: evenodd; clip-rule: evenodd; stroke-linejoin: round; stroke-miterlimit: 1.5; fill: none;"><path d="M1110.235,557.105C1110.401,557.437,1110.368,557.449,1110.497,557.710C1110.663,558.041,1111.064,557.755,1111.192,558.013C1111.195,558.005,1111.540,556.913,1110.891,556.749C1110.741,556.712,1110.461,556.726,1110.537,558.644C1110.582,558.520,1111.140,556.980,1111.140,557.105C1111.140,557.158,1111.282,557.194,1110.314,560.433C1110.296,560.491,1110.111,561.114,1110.052,561.144C1109.958,561.191,1109.580,558.895,1109.580,557.341C1109.632,557.546,1109.604,557.550,1109.947,559.960C1109.957,560.031,1109.969,560.028,1110.130,560.841C1110.362,560.203,1110.960,558.756,1111.023,557.934C1110.957,557.931,1110.321,557.898,1110.209,557.841C1110.177,557.826,1110.157,557.889,1110.156,557.894C1110.155,557.921,1110.340,560.790,1110.366,560.973C1110.462,561.640,1110.619,561.624,1110.537,562.289C1110.521,562.416,1110.532,562.469,1110.524,562.617C1110.833,561.064,1111.601,559.130,1111.126,559.209C1111.002,559.231,1110.767,562.008,1110.681,562.354C1110.632,562.552,1110.498,564.179,1110.458,564.380C1110.438,564.483,1110.445,564.532,1110.445,565.143C1110.411,565.040,1110.437,564.015,1110.314,563.644C1110.209,563.328,1110.209,561.320,1110.209,561.117C1110.248,561.391,1110.603,563.316,1110.694,563.683C1110.845,564.289,1110.919,565.082,1110.982,565.275L1110.982,565.064" style="fill: none; stroke-width: 1; stroke: rgb(0, 0, 0); stroke-opacity: 1;" class="stroke-shape"/></g><path d="M1638.388,572.489L1647.174,583.026" style="fill-rule: evenodd; clip-rule: evenodd; stroke-linejoin: round; stroke-miterlimit: 1.5; fill: none;" class="fills"/><g class="strokes" style="fill-rule: evenodd; clip-rule: evenodd; stroke-linejoin: round; stroke-miterlimit: 1.5; fill: none;"><path d="M1638.388,572.489L1647.174,583.026" style="fill: none; stroke-width: 4.11; stroke: rgb(0, 0, 0); stroke-opacity: 1;" class="stroke-shape"/></g><path d="M1829.958,572.805C1828.891,573.876,1829.178,574.102,1828.115,575.169C1828.084,575.200,1827.041,576.247,1827.808,575.631C1828.708,574.909,1831.173,574.128,1831.443,574.090C1832.662,573.915,1832.580,573.625,1833.797,573.421C1835.385,573.155,1828.592,578.185,1827.859,578.920C1827.292,579.490,1829.371,575.952,1831.443,574.912C1831.703,574.781,1831.841,574.657,1831.852,574.963C1831.963,577.981,1831.409,578.061,1830.880,580.719C1831.151,579.901,1833.117,577.136,1833.337,576.916C1833.669,576.582,1832.954,582.798,1832.159,583.597" style="fill-rule: evenodd; clip-rule: evenodd; stroke-linejoin: round; stroke-miterlimit: 1.5; fill: none;" class="fills"/><g class="strokes" style="fill-rule: evenodd; clip-rule: evenodd; stroke-linejoin: round; stroke-miterlimit: 1.5; fill: none;"><path d="M1829.958,572.805C1828.891,573.876,1829.178,574.102,1828.115,575.169C1828.084,575.200,1827.041,576.247,1827.808,575.631C1828.708,574.909,1831.173,574.128,1831.443,574.090C1832.662,573.915,1832.580,573.625,1833.797,573.421C1835.385,573.155,1828.592,578.185,1827.859,578.920C1827.292,579.490,1829.371,575.952,1831.443,574.912C1831.703,574.781,1831.841,574.657,1831.852,574.963C1831.963,577.981,1831.409,578.061,1830.880,580.719C1831.151,579.901,1833.117,577.136,1833.337,576.916C1833.669,576.582,1832.954,582.798,1832.159,583.597" style="fill: none; stroke-width: 4.11; stroke: rgb(0, 0, 0); stroke-opacity: 1;" class="stroke-shape"/></g><path d="M1642.200,574.893C1642.827,574.935,1653.323,575.637,1649.827,576.808C1645.394,578.291,1641.761,578.011,1641.055,577.956C1637.781,577.703,1640.674,579.649,1640.674,582.934" style="fill-rule: evenodd; clip-rule: evenodd; stroke-linejoin: round; stroke-miterlimit: 1.5; fill: none;" class="fills"/><g class="strokes" style="fill-rule: evenodd; clip-rule: evenodd; stroke-linejoin: round; stroke-miterlimit: 1.5; fill: none;"><path d="M1642.200,574.893C1642.827,574.935,1653.323,575.637,1649.827,576.808C1645.394,578.291,1641.761,578.011,1641.055,577.956C1637.781,577.703,1640.674,579.649,1640.674,582.934" style="fill: none; stroke-width: 4.11; stroke: rgb(0, 0, 0); stroke-opacity: 1;" class="stroke-shape"/></g></g></g></g></svg>